<?xml version="1.0" encoding="utf-8"?>
<svg viewBox="71.803 109.788 16 4" width="24" height="8" xmlns="http://www.w3.org/2000/svg">
  <path d="M 75.803 111.788 C 75.803 112.893 74.908 113.788 73.803 113.788 C 72.698 113.788 71.803 112.893 71.803 111.788 C 71.803 110.683 72.698 109.788 73.803 109.788 C 74.908 109.788 75.803 110.683 75.803 111.788 Z" style="fill: rgba(0, 0, 0, 0.9);" transform="matrix(1, 0, 0, 1, 1.4210854715202004e-14, 0)"/>
  <path d="M 81.803 111.788 C 81.803 112.893 80.908 113.788 79.803 113.788 C 78.698 113.788 77.803 112.893 77.803 111.788 C 77.803 110.683 78.698 109.788 79.803 109.788 C 80.908 109.788 81.803 110.683 81.803 111.788 Z" style="fill: rgba(0, 0, 0, 0.9);" transform="matrix(1, 0, 0, 1, 1.4210854715202004e-14, 0)"/>
  <path d="M 85.803 113.788 C 86.908 113.788 87.803 112.893 87.803 111.788 C 87.803 110.683 86.908 109.788 85.803 109.788 C 84.698 109.788 83.803 110.683 83.803 111.788 C 83.803 112.893 84.698 113.788 85.803 113.788 Z" style="fill: rgba(0, 0, 0, 0.9);" transform="matrix(1, 0, 0, 1, 1.4210854715202004e-14, 0)"/>
</svg>